Coordinates
version=1
nRows=17
nColumns=36
inDegrees=yes

Units are S.I. units (second, meters, Newtons, ...)
If the header above contains a line with 'inDegrees', this indicates whether rotational values are in degrees (yes) or radians (no).

endheader
time	pelvis_tilt	pelvis_list	pelvis_rotation	pelvis_tx	pelvis_ty	pelvis_tz	hip_flexion_r	hip_adduction_r	hip_rotation_r	knee_angle_r	knee_angle_r_beta	ankle_angle_r	subtalar_angle_r	mtp_angle_r	hip_flexion_l	hip_adduction_l	hip_rotation_l	knee_angle_l	knee_angle_l_beta	ankle_angle_l	subtalar_angle_l	mtp_angle_l	lumbar_extension	lumbar_bending	lumbar_rotation	arm_flex_r	arm_add_r	arm_rot_r	elbow_flex_r	pro_sup_r	arm_flex_l	arm_add_l	arm_rot_l	elbow_flex_l	pro_sup_l
      1.41250000	    -12.96364789	      0.27128536	      2.11735789	     -0.98157624	      1.13072487	     -0.07957566	     47.13521947	     -8.63962015	     -7.52130926	     64.10653793	      1.11887016	     31.71847832	    -10.87969947	     -7.49999987	     47.99722385	     -6.27784431	     -5.94308658	     63.77888935	      1.11315161	     28.94241245	     -0.85407238	     -7.49999987	    -54.41224821	      0.22090169	     -2.68789254	     14.51987550	    -14.51208047	     30.47827630	     19.58032253	     53.55540963	     15.25539989	    -15.49586244	     35.66130811	     15.51149791	     44.16233595
      1.41666670	    -12.82810959	      0.33188581	      2.16266018	     -0.97859986	      1.12704110	     -0.08113575	     47.20477979	     -8.83349470	     -7.44788436	     64.78483099	      1.13070861	     31.89837350	    -11.07614495	     -7.49999987	     48.13709613	     -6.23015983	     -5.85471712	     64.43646061	      1.12462840	     29.14371902	     -0.92793916	     -7.49999987	    -54.76153307	      0.27692522	     -2.70920121	     14.79905628	    -14.54658754	     30.50597612	     19.63491031	     53.55317565	     15.69744825	    -15.64965052	     35.65357118	     15.64905216	     44.12002214
      1.42083330	    -12.82295727	      0.40236604	      2.18648488	     -0.97774610	      1.12479312	     -0.08099255	     47.46587707	     -9.01536516	     -7.35460527	     65.52662709	      1.14365539	     32.36122353	    -11.08921420	     -7.49999987	     48.44147154	     -6.20093597	     -5.83256398	     65.14783884	      1.13704429	     29.64552371	     -0.72950172	     -7.49999987	    -54.76192843	      0.25943507	     -2.69446142	     15.02320435	    -14.61563984	     30.60974603	     19.60484572	     53.88053410	     16.03208512	    -15.72239010	     35.64918447	     15.70513271	     44.60013206
      1.42500000	    -12.80600997	      0.41756142	      2.20980327	     -0.97590679	      1.12203458	     -0.07977848	     47.67579494	     -9.11441729	     -7.32854485	     66.30267942	      1.15720006	     32.66416457	    -11.21726670	     -7.49999987	     48.68152447	     -6.30219613	     -5.80523142	     65.81675187	      1.14871902	     29.96273078	     -0.63290694	     -7.49999987	    -54.79712482	      0.27158237	     -2.85894570	     15.66201336	    -14.81274114	     33.64648611	     19.11329232	     52.69868328	     16.33683949	    -16.06744787	     37.82088959	     15.84079957	     39.81571249
      1.42916670	    -13.04968731	      0.41054700	      2.13781435	     -0.97909622	      1.12146403	     -0.07892191	     48.29226311	     -9.04326719	     -7.27025297	     66.84954332	      1.16674463	     32.96295878	    -11.32344002	     -7.49999987	     49.29108231	     -6.39013237	     -5.77811577	     66.42051439	      1.15925667	     30.04549337	     -0.81596707	     -7.49999987	    -54.72050466	      0.20038946	     -2.68205031	     15.78212929	    -14.93526669	     33.30167317	     19.73600431	     53.33752558	     16.75843109	    -16.28258206	     37.48946839	     15.98827358	     41.35354618
      1.43333330	    -12.95405768	      0.38203321	      2.09345957	     -0.97398401	      1.11729371	     -0.07781789	     48.35080246	     -8.95662683	     -7.23952619	     67.39083653	      1.17619198	     33.18631426	    -11.42322932	     -7.49999987	     49.34369765	     -6.59619518	     -5.72493762	     66.98391300	      1.16908983	     30.22073453	     -0.86160860	     -7.49999987	    -54.87422838	      0.12140727	     -2.64412028	     16.10800393	    -15.06244139	     33.23709826	     19.77184339	     53.29621670	     17.18016997	    -16.49644751	     37.44704877	     16.05773726	     41.30581995
      1.43750000	    -13.08438379	      0.33040659	      2.02590415	     -0.97330954	      1.11705902	     -0.07969372	     48.55351811	     -8.90414170	     -7.26133029	     67.73563105	      1.18220978	     33.41618732	    -11.46966206	     -7.49999987	     49.65443647	     -6.78011555	     -5.82010223	     67.62246382	      1.18023464	     30.64606384	     -0.64345117	     -7.49999987	    -54.80212417	      0.08280875	     -2.50349906	     16.36584731	    -15.43482079	     32.81125276	     20.19486474	     53.68825307	     17.58139448	    -16.59565682	     37.03790999	     16.17782935	     42.32243500
      1.44166670	    -13.16043505	      0.27278873	      1.92045220	     -0.97162656	      1.11033284	     -0.07775019	     48.96281668	     -8.87863701	     -7.32264360	     68.50869607	      1.19570231	     33.75493015	    -11.61151700	     -7.49999987	     49.99546904	     -7.03241715	     -5.83428116	     68.37639818	      1.19339328	     31.25408727	     -0.50150488	     -7.49999987	    -54.68640107	     -0.03115904	     -2.46923797	     16.57178895	    -15.63539038	     31.93984303	     20.66978810	     53.71551126	     17.72030358	    -16.82568666	     36.06871233	     16.52585023	     42.36395186
      1.44583330	    -13.44989918	      0.26296134	      1.83100733	     -0.97201734	      1.10977151	     -0.07919871	     49.51612223	     -8.91269370	     -7.27646980	     69.11561979	      1.20629513	     33.99686973	    -11.64446066	     -7.49999987	     50.53374875	     -7.14838661	     -5.96951438	     68.96718808	      1.20370451	     31.64808050	     -0.44826594	     -7.49999987	    -54.43515871	     -0.02420709	     -2.40316672	     16.79778898	    -15.99625633	     31.44801208	     21.34280893	     54.37477513	     17.98149554	    -16.90192056	     35.53333339	     16.74568840	     43.91619093
      1.45000000	    -13.55825021	      0.24686430	      1.72615396	     -0.96924198	      1.10602135	     -0.07903489	     49.93393773	     -8.93120258	     -7.20817547	     69.75635608	      1.21747809	     34.44673229	    -11.71983796	     -7.49999987	     50.93917059	     -7.24314920	     -5.95868113	     69.62854433	      1.21524735	     31.99633052	     -0.75232985	     -7.49999987	    -54.40517375	     -0.08434112	     -2.36510510	     17.00433310	    -16.32180383	     31.17548951	     22.21862649	     54.83641845	     18.28573628	    -17.03486679	     35.24012431	     17.15860140	     45.08751999
      1.45416670	    -13.51731287	      0.15835119	      1.60462872	     -0.96624925	      1.10306565	     -0.07755555	     50.03930934	     -8.85613583	     -7.20091354	     70.34750008	      1.22779550	     34.89112417	    -11.44250835	     -7.49999987	     51.03491324	     -7.57648258	     -6.01784890	     70.34654790	      1.22777888	     32.73321133	     -0.17785335	     -7.49999987	    -54.48284795	     -0.08684356	     -2.15098741	     17.37590593	    -16.37286778	     30.67011738	     22.07370002	     55.10079345	     18.60921216	    -16.99515424	     34.50375766	     17.02655752	     45.48604303
      1.45833330	    -13.29484153	      0.13066893	      1.50722256	     -0.96679257	      1.10382203	     -0.07700408	     49.93298854	     -8.74147817	     -7.07559792	     70.81406763	      1.23593864	     35.35546790	    -11.11341016	     -7.49999987	     50.95688894	     -7.79736965	     -6.07618491	     70.87822506	      1.23705840	     33.14465276	      0.05198740	     -7.49999987	    -54.99311559	     -0.02091065	     -2.05989063	     17.82913854	    -16.46574539	     30.02011408	     22.72118559	     55.53514331	     18.98099778	    -16.99916554	     33.59737352	     17.47630458	     46.42057904
      1.46250000	    -13.30335613	      0.05369377	      1.36998212	     -0.96507599	      1.10006867	     -0.07625783	     50.20440888	     -8.55810154	     -6.99224706	     71.46613786	      1.24731941	     35.67219580	    -11.16650653	     -7.49999987	     51.22239456	     -8.02965572	     -5.96505199	     71.55683441	      1.24890236	     33.39568116	     -0.01491013	     -7.49999987	    -55.17300842	      0.05974071	     -2.00366786	     18.58759889	    -16.32964049	     30.20068722	     22.52291496	     56.09032114	     19.02281928	    -17.06472415	     31.65457365	     18.19361093	     43.21257422
      1.46666670	    -13.34859106	      0.06126455	      1.19584537	     -0.96365169	      1.09898282	     -0.07704622	     50.42270815	     -8.46055978	     -6.93345755	     71.89565849	      1.25481596	     36.04730254	    -11.20220805	     -7.49999987	     51.41128436	     -8.23664588	     -5.97877322	     72.09399302	      1.25827755	     33.67606190	      0.22084966	     -7.49999987	    -55.34957845	     -0.02357353	     -1.71777778	     18.92358877	    -16.29289685	     29.83528892	     22.84065189	     56.37373042	     19.58679447	    -17.08456605	     31.36970790	     18.41633121	     44.39756402
      1.47083330	    -13.45042874	      0.07397449	      1.12043478	     -0.96202240	      1.09786202	     -0.07764783	     50.59704035	     -8.46483178	     -6.88227289	     72.18173432	      1.25980892	     36.38808169	    -11.09328967	     -7.49999987	     51.56784987	     -8.28474013	     -5.92395045	     72.44231422	      1.26435690	     33.91883114	      0.38545215	     -7.49999987	    -55.47636112	     -0.11369820	     -1.64289693	     19.49606541	    -16.28401939	     29.58746854	     22.98036141	     56.60567074	     20.16469022	    -17.11200413	     31.13387101	     18.50326136	     45.21871347
      1.47500000	    -13.59290487	      0.03259632	      0.96425868	     -0.96099775	      1.09480377	     -0.07725756	     50.91269486	     -8.37064283	     -6.79766814	     72.61227533	      1.26732328	     36.81249366	    -11.02432080	     -7.49999987	     51.83638308	     -8.41814178	     -5.83171783	     72.97798071	      1.27370604	     34.33646069	      0.53370992	     -7.49999987	    -55.53556017	     -0.20769642	     -1.57876463	     20.10377302	    -16.30216472	     29.41446638	     23.36799097	     56.76154735	     20.50854846	    -17.22321919	     30.84784590	     18.91367652	     45.73178015
      1.47916670	    -13.50427777	     -0.04312644	      0.87341948	     -0.95834612	      1.09561387	     -0.07635484	     50.78431416	     -8.25965449	     -6.79530848	     72.81533978	      1.27086743	     37.05477681	    -10.94847643	     -7.49999987	     51.75929662	     -8.55807381	     -5.69261011	     73.29172123	      1.27918185	     34.45597107	      0.64798840	     -7.49999987	    -55.88066525	     -0.21371787	     -1.43805050	     20.92922050	    -16.27062210	     29.21287105	     23.29111092	     56.99825506	     21.26216274	    -17.16349723	     30.48786744	     18.83900624	     46.31854671
